<svg width="40" height="40" viewBox="0 0 40 40" fill="none" xmlns="http://www.w3.org/2000/svg">
<circle cx="20" cy="20" r="20" fill="#5A0912"/>
<path d="M24.5 22H23.71L23.43 21.73C24.0549 21.004 24.5117 20.1488 24.7675 19.2256C25.0234 18.3025 25.072 17.3342 24.91 16.39C24.44 13.61 22.12 11.39 19.32 11.05C18.3356 10.9255 17.3358 11.0278 16.397 11.3491C15.4582 11.6704 14.6054 12.2022 13.9038 12.9038C13.2022 13.6054 12.6704 14.4583 12.3491 15.397C12.0277 16.3358 11.9254 17.3356 12.05 18.32C12.39 21.12 14.61 23.44 17.39 23.91C18.3341 24.0721 19.3024 24.0234 20.2256 23.7676C21.1487 23.5117 22.0039 23.055 22.73 22.43L23 22.71V23.5L27.25 27.75C27.66 28.16 28.33 28.16 28.74 27.75C29.15 27.34 29.15 26.67 28.74 26.26L24.5 22ZM18.5 22C16.01 22 14 19.99 14 17.5C14 15.01 16.01 13 18.5 13C20.99 13 23 15.01 23 17.5C23 19.99 20.99 22 18.5 22Z" fill="white"/>
</svg>
