<svg width="229" height="48" viewBox="0 0 229 48" fill="none" xmlns="http://www.w3.org/2000/svg">
<path d="M136.363 47.7117H135.046L134.425 46.303H130.864L130.278 47.704H128.96L132.012 40.699H133.33L136.363 47.7117ZM131.567 44.7096L131.473 44.9097H133.816L133.734 44.7096L132.644 42.0153L131.567 44.7096Z" fill="#333333"/>
<path d="M150.42 44.8097V47.7118H149.248V40.7067H155.029V42.1077H150.39V43.4087H154.619V44.8097H150.42Z" fill="#333333"/>
<path d="M168.207 40.7067H172.429C173.601 40.7067 174.485 41.2764 174.485 42.9622C174.485 44.648 173.565 45.1638 172.447 45.1638H172.377L174.719 47.7195H172.962L170.784 45.2177H169.36V47.7195H168.189L168.207 40.7067ZM172.47 43.7859C172.974 43.7859 173.325 43.5626 173.325 42.9391C173.325 42.3156 172.974 42.0846 172.47 42.0846H169.349V43.7859H172.47Z" fill="#333333"/>
<path d="M187.786 40.7067H188.957V47.7118H187.786V40.7067Z" fill="#333333"/>
<path d="M208.864 47.3037C207.991 47.6789 207.077 47.861 206.159 47.8426C203.388 47.8426 202.229 46.303 202.229 44.1861C202.229 42.0692 203.4 40.5297 206.159 40.5297C207.08 40.518 207.996 40.7079 208.87 41.0916L208.607 42.4541C207.811 42.1313 206.985 41.9602 206.153 41.9461C204.144 41.9461 203.388 42.8775 203.388 44.2015C203.388 45.5255 204.144 46.4493 206.153 46.4493C206.985 46.4351 207.811 46.264 208.607 45.9412L208.864 47.3037Z" fill="#333333"/>
<path d="M229 47.7117H227.682L227.044 46.303H223.483L222.897 47.704H221.58L224.631 40.699H225.949L229 47.7117ZM224.203 44.7096L224.11 44.9097H226.452L226.37 44.7096L225.281 42.0153L224.203 44.7096Z" fill="#333333"/>
<path d="M0 29.6911V0.116028H4.82013V23.7792H23.4271V29.6911H0Z" fill="#333333"/>
<path d="M57.3965 29.6911H51.8326L49.2263 23.7792H34.2037L31.6267 29.6911H26.0627L38.9652 0.116028H44.5116L57.3965 29.6911ZM37.1613 17.0513L36.7748 17.898H46.6786L46.3272 17.0513L41.7296 5.65077L37.1613 17.0513Z" fill="#333333"/>
<path d="M60.6938 29.6911V0.116028H78.4809C83.4299 0.116028 86.6804 2.10207 86.6804 7.63681C86.7344 8.89138 86.5262 10.1415 86.0781 11.2515C85.63 12.3615 84.9592 13.2891 84.1385 13.9336C86.6159 15.1191 88.2851 17.3977 88.2851 21.5006C88.2851 26.3579 85.9424 29.6988 80.1852 29.6988L60.6938 29.6911ZM65.514 6.02796V11.5242H78.4809C81.1809 11.5242 82.1765 10.7544 82.1765 8.77609C82.1765 6.79775 81.1809 6.02796 78.4809 6.02796H65.514ZM65.514 17.4362V23.7715H80.2028C82.7739 23.7715 83.8047 22.7554 83.8047 20.5615C83.8047 18.3676 82.7739 17.4362 80.2028 17.4362H65.514Z" fill="#333333"/>
<path d="M93.199 29.6911V0.116028H117.598V6.02796H98.0191V11.5242H117.569V17.4362H98.0191V23.7715H117.569V29.6834L93.199 29.6911Z" fill="#333333"/>
<path d="M123.127 29.6911V0.116028H127.947V23.7792H146.56V29.6911H123.127Z" fill="#333333"/>
<path d="M181.343 24.2026L171.346 8.52206L171.445 12.7867V29.7219H166.625V0.116028H171.445L182.825 17.9442L194.205 0.116028H199.025V29.6911H194.205V12.7559L194.304 8.49127L184.272 24.2026H181.343Z" fill="#333333"/>
<path d="M204.56 29.6911V0.116028H228.959V6.02796H209.38V11.5242H229V17.4362H209.38V23.7715H229V29.6834L204.56 29.6911Z" fill="#333333"/>
<path d="M118.465 44.6326H60.6938V47.5347H118.465V44.6326Z" fill="#333333"/>
</svg>
