<svg width="229" height="37" viewBox="0 0 229 37" fill="none" xmlns="http://www.w3.org/2000/svg">
<path d="M136.363 36.2124H135.046L134.425 35.1407H130.864L130.278 36.2066H128.96L132.012 30.8769H133.33L136.363 36.2124ZM131.567 33.9283L131.473 34.0806H133.816L133.734 33.9283L132.644 31.8784L131.567 33.9283Z" fill="#5A0912"/>
<path d="M150.42 34.0045V36.2125H149.248V30.8828H155.029V31.9487H150.39V32.9385H154.619V34.0045H150.42Z" fill="#5A0912"/>
<path d="M168.207 30.8828H172.429C173.601 30.8828 174.485 31.3162 174.485 32.5988C174.485 33.8815 173.566 34.2739 172.447 34.2739H172.377L174.719 36.2183H172.962L170.784 34.3149H169.36V36.2183H168.189L168.207 30.8828ZM172.47 33.2255C172.974 33.2255 173.325 33.0557 173.325 32.5813C173.325 32.1069 172.974 31.9312 172.47 31.9312H169.349V33.2255H172.47Z" fill="#5A0912"/>
<path d="M187.786 30.8828H188.957V36.2125H187.786V30.8828Z" fill="#5A0912"/>
<path d="M208.864 35.9021C207.991 36.1875 207.077 36.3261 206.159 36.312C203.388 36.312 202.229 35.1407 202.229 33.5301C202.229 31.9195 203.4 30.7481 206.159 30.7481C207.08 30.7392 207.996 30.8837 208.87 31.1756L208.607 32.2123C207.811 31.9667 206.985 31.8365 206.153 31.8257C204.144 31.8257 203.388 32.5344 203.388 33.5418C203.388 34.5491 204.144 35.252 206.153 35.252C206.985 35.2412 207.811 35.111 208.607 34.8654L208.864 35.9021Z" fill="#5A0912"/>
<path d="M229 36.2124H227.682L227.044 35.1407H223.483L222.897 36.2066H221.579L224.631 30.8769H225.949L229 36.2124ZM224.203 33.9283L224.11 34.0806H226.452L226.37 33.9283L225.281 31.8784L224.203 33.9283Z" fill="#5A0912"/>
<path d="M0 22.5017V0H4.82013V18.0037H23.4271V22.5017H0Z" fill="#5A0912"/>
<path d="M57.3964 22.5017H51.8324L49.2262 18.0037H34.2035L31.6266 22.5017H26.0626L38.9651 0H44.5115L57.3964 22.5017ZM37.1612 12.8849L36.7747 13.5292H46.6785L46.3271 12.8849L41.7295 4.21102L37.1612 12.8849Z" fill="#5A0912"/>
<path d="M60.6938 22.5017V0H78.4808C83.4298 0 86.6803 1.51105 86.6803 5.72207C86.7344 6.67659 86.5261 7.6277 86.078 8.47224C85.6299 9.31678 84.9592 10.0225 84.1385 10.5129C86.6159 11.4149 88.2851 13.1485 88.2851 16.2701C88.2851 19.9658 85.9424 22.5076 80.1851 22.5076L60.6938 22.5017ZM65.5139 4.498V8.67974H78.4808C81.1808 8.67974 82.1764 8.09407 82.1764 6.58887C82.1764 5.08368 81.1808 4.498 78.4808 4.498H65.5139ZM65.5139 13.1777V17.9979H80.2027C82.7738 17.9979 83.8046 17.2248 83.8046 15.5556C83.8046 13.8864 82.7738 13.1777 80.2027 13.1777H65.5139Z" fill="#5A0912"/>
<path d="M93.1989 22.5017V0H117.598V4.498H98.019V8.67974H117.569V13.1777H98.019V17.9979H117.569V22.4959L93.1989 22.5017Z" fill="#5A0912"/>
<path d="M123.127 22.5017V0H127.947V18.0037H146.56V22.5017H123.127Z" fill="#5A0912"/>
<path d="M181.343 18.3259L171.346 6.3956L171.445 9.64025V22.5252H166.625V0H171.445L182.825 13.5643L194.205 0H199.025V22.5017H194.205V9.61683L194.304 6.37217L184.272 18.3259H181.343Z" fill="#5A0912"/>
<path d="M204.56 22.5017V0H228.959V4.498H209.38V8.67974H229V13.1777H209.38V17.9979H229V22.4959L204.56 22.5017Z" fill="#5A0912"/>
<path d="M118.465 33.8698H60.6938V36.0778H118.465V33.8698Z" fill="#5A0912"/>
</svg>
